<?xml version="1.0" standalone="no"?><!DOCTYPE svg PUBLIC "-//W3C//DTD SVG 1.1//EN" "http://www.w3.org/Graphics/SVG/1.1/DTD/svg11.dtd"><svg t="1756184831125" class="icon" viewBox="0 0 1024 1024" version="1.1" xmlns="http://www.w3.org/2000/svg" p-id="27366" xmlns:xlink="http://www.w3.org/1999/xlink" width="200" height="200"><path d="M512 559.872a47.872 47.872 0 1 0 0-95.786667 47.872 47.872 0 0 0 0 95.786667zM179.925333 598.186667a98.986667 98.986667 0 0 0 82.090667 97.450666V328.32A98.986667 98.986667 0 0 0 179.925333 425.813333v172.458667z" fill="#7596FD" p-id="27367"></path><path d="M482.005333 408.362667v-81.493334h-160v370.218667h160v-81.493333A108.074667 108.074667 0 0 1 404.053333 512c0-49.066667 32.981333-90.581333 77.909334-103.637333zM762.026667 328.32v367.36a98.986667 98.986667 0 0 0 82.048-97.450667V425.770667a98.986667 98.986667 0 0 0-82.090667-97.450667zM701.994667 326.869333h-160v81.493334A108.074667 108.074667 0 0 1 619.946667 512c0 49.066667-32.981333 90.581333-77.909334 103.594667v81.493333h160V326.869333z" fill="#7596FD" p-id="27368"></path><path d="M395.946667 146.944h232.106666v119.893333H395.946667v-119.893333zM278.784 266.88h57.173333v-119.893333h-57.173333A277.461333 277.461333 0 0 0 104.106667 208.64l85.632 85.632a157.994667 157.994667 0 0 1 89.045333-27.392zM834.261333 294.272L919.893333 208.64a277.461333 277.461333 0 0 0-174.677333-61.696h-57.173333v119.893333h57.173333c32.981333 0 63.616 10.154667 89.045333 27.434667zM119.893333 425.770667c0-32.981333 10.154667-63.658667 27.392-89.088L61.696 251.093333A277.461333 277.461333 0 0 0 0 425.770667v56.234666h119.893333V425.770667zM962.346667 251.093333L876.672 336.64c17.28 25.429333 27.392 56.106667 27.392 89.088v56.234667H1024V425.770667a277.461333 277.461333 0 0 0-61.653333-174.677334zM745.216 757.077333h-57.173333v119.893334h57.173333a277.461333 277.461333 0 0 0 174.677333-61.653334l-85.632-85.632a157.994667 157.994667 0 0 1-89.045333 27.392zM904.106667 598.186667c0 33.024-10.154667 63.701333-27.392 89.088l85.589333 85.632A277.461333 277.461333 0 0 0 1024 598.229333v-56.234666h-119.893333v56.234666zM119.893333 598.186667v-56.192H0v56.234666c0 66.090667 23.125333 126.848 61.696 174.677334l85.589333-85.632a157.952 157.952 0 0 1-27.349333-89.045334zM395.946667 757.12h232.106666v119.893333H395.946667v-119.893333zM189.738667 729.728L104.106667 815.317333a277.461333 277.461333 0 0 0 174.677333 61.696h57.173333v-119.893333h-57.173333a157.994667 157.994667 0 0 1-89.045333-27.392z" fill="#FF3023" p-id="27369"></path></svg>