<?xml version="1.0" standalone="no"?><!DOCTYPE svg PUBLIC "-//W3C//DTD SVG 1.1//EN" "http://www.w3.org/Graphics/SVG/1.1/DTD/svg11.dtd"><svg t="1756184887879" class="icon" viewBox="0 0 1024 1024" version="1.1" xmlns="http://www.w3.org/2000/svg" p-id="33109" xmlns:xlink="http://www.w3.org/1999/xlink" width="200" height="200"><path d="M85.333333 339.2s98.133333-100.266667 189.866667-98.133333 134.4 76.8 170.666667 81.066666c38.4 6.4 145.066667-149.333333 238.933333-151.466666s256 166.4 256 166.4V426.666667s-119.466667-91.733333-179.2-93.866667c-57.6-2.133333-136.533333 44.8-221.866667 85.333333s-181.333333-34.133333-245.333333-36.266666S85.333333 428.8 85.333333 428.8v-89.6z" fill="#4C64FE" p-id="33110"></path><path d="M85.333333 416s170.666667-49.066667 202.666667-46.933333 132.266667 55.466667 185.6 53.333333 189.866667-96 288-96 179.2 87.466667 179.2 87.466667V490.666667s-119.466667-76.8-202.666667-61.866667-164.266667 108.8-260.266666 110.933333c-96 2.133333-192-68.266667-226.133334-66.133333C217.6 475.733333 85.333333 533.333333 85.333333 533.333333v-117.333333zM85.333333 684.8s98.133333 100.266667 189.866667 98.133333 134.4-76.8 170.666667-81.066666c38.4-6.4 145.066667 149.333333 238.933333 151.466666s256-166.4 256-166.4V597.333333s-119.466667 91.733333-179.2 93.866667c-57.6 2.133333-136.533333-44.8-221.866667-85.333333-87.466667-40.533333-181.333333 34.133333-245.333333 36.266666S85.333333 593.066667 85.333333 593.066667v91.733333z" fill="#4C64FE" opacity=".6" p-id="33111"></path><path d="M85.333333 533.333333s128-61.866667 177.066667-57.6 119.466667 55.466667 198.4 55.466667c81.066667 2.133333 185.6-91.733333 277.333333-102.4s202.666667 61.866667 202.666667 61.866667v106.666666s-123.733333 91.733333-179.2 93.866667c-55.466667 2.133333-179.2-61.866667-194.133333-68.266667-14.933333-6.4-51.2-44.8-119.466667-17.066666-59.733333 23.466667-125.866667 40.533333-194.133333 36.266666-66.133333-4.266667-168.533333-49.066667-168.533334-49.066666V533.333333z" fill="#4C64FE" p-id="33112"></path></svg>