<?xml version="1.0" standalone="no"?><!DOCTYPE svg PUBLIC "-//W3C//DTD SVG 1.1//EN" "http://www.w3.org/Graphics/SVG/1.1/DTD/svg11.dtd"><svg t="1756184940132" class="icon" viewBox="0 0 1103 1024" version="1.1" xmlns="http://www.w3.org/2000/svg" p-id="37550" xmlns:xlink="http://www.w3.org/1999/xlink" width="215.4296875" height="200"><path d="M508.866511 1004.837014l282.712238-456.364411 290.94465 456.364411z" fill="#F0F0FF" p-id="37551"></path><path d="M1082.609602 1022.077667H508.866511a17.240654 17.240654 0 0 1-14.658866-26.322168l282.712238-456.364411a17.240654 17.240654 0 0 1 14.542491-8.163449h0.112065a17.240654 17.240654 0 0 1 14.538181 7.973802l290.121408 455.062742a17.240654 17.240654 0 0 1-13.624426 27.813484z m-542.783187-34.481307h511.262962l-259.29943-406.724259-251.963532 406.724259z" fill="#6E6E96" p-id="37552"></path><path d="M37.041544 1004.837014L260.161463 560.993627l295.405669 443.843387z" fill="#F0F0FF" p-id="37553"></path><path d="M555.649025 1022.077667H37.041544a17.240654 17.240654 0 0 1-15.404524-24.981707L244.756939 553.252574a17.240654 17.240654 0 0 1 14.357154-9.460809c6.103191-0.474118 11.995185 2.542996 15.400214 7.65485l294.556567 442.567578a17.240654 17.240654 0 0 1-13.421849 28.063474z m-490.643141-34.481307H523.383142l-261.13987-392.354174-197.237388 392.354174z" fill="#6E6E96" p-id="37554"></path><path d="M184.582748 1004.837014l328.188771-667.398632 392.698988 667.398632z" fill="#F0F0FF" p-id="37555"></path><path d="M905.55671 1022.077667H184.582748a17.240654 17.240654 0 0 1-15.473487-24.848092l328.188772-667.398631a17.240654 17.240654 0 0 1 30.330619-1.133573l391.905918 666.04524a17.240654 17.240654 0 0 1-13.97786 27.335056z m-693.281163-34.481307h663.045367l-361.191693-613.849161L212.275547 987.59636z" fill="#6E6E96" p-id="37556"></path><path d="M512.771519 337.438382l203.500055 543.166792-204.771553-229.524821 98.228624 251.91612-302.982936 42.636136 153.165966-500.13412-275.328927 559.338525 718.150805-4.810143z" fill="#6E6E96" opacity=".24" p-id="37557"></path><path d="M260.161463 560.993627l-133.222841 386.772513 236.86503-328.684441 0.353433 20.068121-179.574337 365.687194H37.041544zM716.366398 646.761569l219.658857 312.198065h66.592024l-211.03853-410.487031 290.94465 456.364411-179.789846-1.081851z" fill="#6E6E96" opacity=".24" p-id="37558"></path><path d="M516.137757 269.06626l211.361793-94.586535-212.814318-93.832258" fill="#FF9EB0" p-id="37559"></path><path d="M516.150687 286.311224a17.240654 17.240654 0 0 1-7.051427-32.98137l175.93225-78.733755-177.298572-78.173434a17.240654 17.240654 0 1 1 13.913208-31.550396l212.814318 93.832258a17.240654 17.240654 0 0 1 0.090513 31.511604l-211.361793 94.586536a17.262204 17.262204 0 0 1-7.038497 1.508557z" fill="#6E6E96" p-id="37560"></path><path d="M523.555548 264.721616V85.573984l19.387115 8.547054v161.915598z" fill="#963C3C" opacity=".15" p-id="37561"></path><path d="M510.14663 366.876798a17.240654 17.240654 0 0 1-17.240654-17.240653V57.217419a17.240654 17.240654 0 0 1 34.481307 0v292.418726a17.240654 17.240654 0 0 1-17.240653 17.240653z" fill="#6E6E96" p-id="37562"></path></svg>