<?xml version="1.0" standalone="no"?><!DOCTYPE svg PUBLIC "-//W3C//DTD SVG 1.1//EN" "http://www.w3.org/Graphics/SVG/1.1/DTD/svg11.dtd"><svg t="1756184953419" class="icon" viewBox="0 0 1024 1024" version="1.1" xmlns="http://www.w3.org/2000/svg" p-id="39414" xmlns:xlink="http://www.w3.org/1999/xlink" width="200" height="200"><path d="M704.512 226.304C680.96 131.072 594.944 60.416 492.544 59.392c-102.4-1.024-188.416 68.608-214.016 163.84h-6.144C151.552 222.208 52.224 319.488 51.2 441.344c0 120.832 96.256 219.136 217.088 221.184h398.336c121.856 1.024 220.16-97.28 221.184-219.136 0-108.544-78.848-199.68-183.296-217.088z m0 0" fill="#94B0FF" p-id="39415"></path><path d="M715.776 964.608c-25.6 0-50.176-7.168-71.68-21.504-4.096-3.072-9.216-6.144-13.312-10.24-2.048-2.048-5.12-4.096-7.168-7.168-3.072-3.072-5.12-6.144-8.192-9.216-11.264-13.312-9.216-33.792 5.12-45.056 13.312-11.264 33.792-9.216 45.056 5.12l4.096 4.096c1.024 1.024 2.048 2.048 4.096 3.072 2.048 2.048 4.096 3.072 6.144 5.12 10.24 7.168 23.552 11.264 35.84 11.264 35.84 0 64.512-28.672 64.512-64.512 0-28.672-21.504-43.008-64.512-43.008H320.512c-17.408 0-31.744-14.336-31.744-31.744 0-17.408 14.336-31.744 31.744-31.744h395.264c78.848 0 128 40.96 128 106.496 0 33.792-13.312 66.56-37.888 91.136-23.552 24.576-56.32 37.888-90.112 37.888z m96.256-385.024H385.024c-17.408 0-31.744-14.336-31.744-31.744 0-17.408 14.336-31.744 31.744-31.744h427.008c45.056 0 82.944-30.72 93.184-73.728s-10.24-88.064-50.176-108.544c-39.936-20.48-88.064-10.24-116.736 24.576-7.168 9.216-18.432 13.312-29.696 11.264-11.264-2.048-20.48-10.24-24.576-20.48-4.096-11.264-2.048-22.528 5.12-31.744 48.128-57.344 128-73.728 194.56-39.936 66.56 33.792 101.376 107.52 83.968 180.224-16.384 70.656-80.896 121.856-155.648 121.856zM235.52 622.592h491.52c17.408 0 31.744 14.336 31.744 31.744 0 17.408-14.336 31.744-31.744 31.744H235.52c-17.408 0-31.744-14.336-31.744-31.744-1.024-17.408 13.312-31.744 31.744-31.744z m0 0" fill="#C2D7F2" p-id="39416"></path></svg>