<?xml version="1.0" standalone="no"?><!DOCTYPE svg PUBLIC "-//W3C//DTD SVG 1.1//EN" "http://www.w3.org/Graphics/SVG/1.1/DTD/svg11.dtd"><svg t="1756184626389" class="icon" viewBox="0 0 1024 1024" version="1.1" xmlns="http://www.w3.org/2000/svg" p-id="6891" xmlns:xlink="http://www.w3.org/1999/xlink" width="200" height="200"><path d="M656 944h304v-176a48 48 0 0 0-48-48h-112v-56.226a144 144 0 1 0-96 0V720h-112a48 48 0 0 0-48 48v176h112" fill="#0094F6" p-id="6892"></path><path d="M496 224a160 160 0 1 0-194.516 156.226L336 432l34.516-51.774A160.03 160.03 0 0 0 496 224z" fill="#F7BA61" p-id="6893"></path><path d="M448 480h64v160h-64z" fill="#007AF6" p-id="6894"></path><path d="M432 688h-96l16-64h80a32 32 0 0 1 32 32 32 32 0 0 1-32 32z" fill="#E8C8B3" p-id="6895"></path><path d="M212.126 705.812L160 784H48v144h208V688h-10.6a40 40 0 0 0-33.274 17.812z" fill="#F5D3BD" p-id="6896"></path><path d="M256 496v128l-16 304h96l13.902-266.218A40 40 0 0 1 389.84 624H448v-128z" fill="#E4E4E2" p-id="6897"></path><path d="M346.86 720l-3.34 64H336l-1.42 4.24A63.968 63.968 0 0 1 273.88 832h-28.82l5.88-112z" fill="#E4E4E2" p-id="6898"></path><path d="M192 496h64v128H192z" fill="#007AF6" p-id="6899"></path><path d="M352 244.316V160a16 16 0 0 0-32 0v84.316a32 32 0 1 0 32 0zM256 192h32v32h-32zM256 144h32v32h-32z" fill="#DC4D41" p-id="6900"></path><path d="M624 944v-128a16 16 0 0 1 32 0v128zM848 944v-128a16 16 0 0 1 32 0v128z" fill="#0A71CD" p-id="6901"></path><path d="M698 502m-26 0a26 26 0 1 0 52 0 26 26 0 1 0-52 0Z" fill="#0A71CD" p-id="6902"></path><path d="M810 502m-26 0a26 26 0 1 0 52 0 26 26 0 1 0-52 0Z" fill="#0A71CD" p-id="6903"></path><path d="M784 608h-64a16 16 0 0 1 0-32h64a16 16 0 0 1 0 32z" fill="#0A71CD" p-id="6904"></path><path d="M346.86 720l-3.34 64H336l-1.42 4.24A63.968 63.968 0 0 1 273.88 832h-28.82l5.88-112z" fill="#CBCBCB" p-id="6905"></path><path d="M240 800h33.872a64 64 0 0 0 60.716-43.762L336 752h48a32 32 0 0 0 32-32 32 32 0 0 0-32-32h-144z" fill="#F5D3BD" p-id="6906"></path><path d="M320 752m32 0l16 0q32 0 32 32l0 0q0 32-32 32l-16 0q-32 0-32-32l0 0q0-32 32-32Z" fill="#F5D3BD" p-id="6907"></path><path d="M395.72 768h-71.44a32.304 32.304 0 0 1 5.08-6.64A31.974 31.974 0 0 1 352 752h16a31.988 31.988 0 0 1 27.72 16z" fill="#F5D3BD" p-id="6908"></path><path d="M395.72 768h-71.44a32.304 32.304 0 0 1 5.08-6.64A31.974 31.974 0 0 1 352 752h16a31.988 31.988 0 0 1 27.72 16z" fill="#E8C8B3" p-id="6909"></path><path d="M320 816m32 0l16 0q32 0 32 32l0 0q0 32-32 32l-16 0q-32 0-32-32l0 0q0-32 32-32Z" fill="#F5D3BD" p-id="6910"></path><path d="M395.72 832h-71.44a32.304 32.304 0 0 1 5.08-6.64A31.974 31.974 0 0 1 352 816h16a31.988 31.988 0 0 1 27.72 16z" fill="#E8C8B3" p-id="6911"></path><path d="M320 880m32 0l16 0q32 0 32 32l0 0q0 32-32 32l-16 0q-32 0-32-32l0 0q0-32 32-32Z" fill="#F5D3BD" p-id="6912"></path><path d="M395.72 896h-71.44a32.304 32.304 0 0 1 5.08-6.64A31.974 31.974 0 0 1 352 880h16a31.988 31.988 0 0 1 27.72 16z" fill="#E8C8B3" p-id="6913"></path><path d="M432 496h16v128h-16z" fill="#CBCBCB" p-id="6914"></path><path d="M240 496h16v128h-16z" fill="#0A71CD" p-id="6915"></path><path d="M48 944h268.262A47.886 47.886 0 0 0 352 960h16a47.968 47.968 0 0 0 35.738-80 47.886 47.886 0 0 0 0-64 47.862 47.862 0 0 0 6.06-55.554A47.928 47.928 0 0 0 429.248 704H432a48.056 48.056 0 0 0 48-48h32a16 16 0 0 0 16-16v-160a16 16 0 0 0-16-16h-64a16 16 0 0 0-16 16H192a16 16 0 0 0-16 16v128a16 16 0 0 0 16 16h47.136l-1.716 32.6a55.864 55.864 0 0 0-38.6 24.348L151.438 768H48a16 16 0 0 0-16 16v144a16 16 0 0 0 16 16z m208.864-32l5.052-96h11.956a79.858 79.858 0 0 0 36.2-8.686 48.272 48.272 0 0 0 6.2 8.686 47.886 47.886 0 0 0 0 64A47.8 47.8 0 0 0 304 912z m90.336-144H368a16 16 0 0 1 0 32h-16a16.014 16.014 0 0 1-15.838-13.846A79.81 79.81 0 0 0 347.2 768z m36.8 80a16.018 16.018 0 0 1-16 16h-16a16 16 0 0 1 0-32h16a16.018 16.018 0 0 1 16 16z m-16 80h-16a16 16 0 0 1 0-32h16a16 16 0 0 1 0 32z m64-256h-66.612l0.488-9.332A24 24 0 0 1 389.84 640h47.282a15.944 15.944 0 0 0 2.866 2.13A16 16 0 0 1 432 672z m64-176v128h-28.264a47.916 47.916 0 0 0-3.736-3.752V496z m-64 112h-42.16a56.032 56.032 0 0 0-55.918 52.948l-0.578 11.052h-63.848l2.482-47.158A16.9 16.9 0 0 0 272 624v-112h160z m-224-96h32v96h-32zM64 800h96a16 16 0 0 0 13.312-7.124l52.126-78.188A23.956 23.956 0 0 1 245.4 704H384a16 16 0 0 1 0 32h-48a16 16 0 0 0-15.18 10.944l-1.4 4.234A47.944 47.944 0 0 1 273.872 784h-27.136a16 16 0 0 0-15.978 15.158L224.82 912H64zM352 226.752V160a16 16 0 0 0-32 0v66.752a48 48 0 1 0 32 0zM336 288a16 16 0 1 1 16-16 16.018 16.018 0 0 1-16 16zM256 192h32v32h-32zM256 144h32v32h-32zM912 528a160 160 0 1 0-224 146.65V704h-96a64.072 64.072 0 0 0-64 64v176a16 16 0 0 0 16 16h416a16 16 0 0 0 16-16v-176a64.072 64.072 0 0 0-64-64h-96v-29.35A160.302 160.302 0 0 0 912 528z m-112 208h112a32.038 32.038 0 0 1 32 32v160h-64v-112a16 16 0 0 0-32 0v112h-192v-112a16 16 0 0 0-32 0v112h-64v-160a32.038 32.038 0 0 1 32-32h112a16 16 0 0 0 16-16v-56.226a16 16 0 0 0-10.666-15.084 128 128 0 1 1 85.332 0 16 16 0 0 0-10.666 15.084V720a16 16 0 0 0 16 16z" p-id="6916"></path><path d="M698 502m-26 0a26 26 0 1 0 52 0 26 26 0 1 0-52 0Z" p-id="6917"></path><path d="M810 502m-26 0a26 26 0 1 0 52 0 26 26 0 1 0-52 0Z" p-id="6918"></path><path d="M800 592a16 16 0 0 0-16-16h-64a16 16 0 0 0 0 32h64a16 16 0 0 0 16-16zM336 48a176 176 0 0 0-44.352 346.314l31.04 46.562a16 16 0 0 0 26.624 0l31.04-46.562A176 176 0 0 0 336 48z m111.762 266.784a144.558 144.558 0 0 1-80.684 49.816 15.988 15.988 0 0 0-9.874 6.752l-21.2 31.8-21.2-31.8a15.988 15.988 0 0 0-9.874-6.752 144.012 144.012 0 1 1 142.84-49.814z" p-id="6919"></path></svg>