<?xml version="1.0" standalone="no"?><!DOCTYPE svg PUBLIC "-//W3C//DTD SVG 1.1//EN" "http://www.w3.org/Graphics/SVG/1.1/DTD/svg11.dtd"><svg t="1756184760472" class="icon" viewBox="0 0 1024 1024" version="1.1" xmlns="http://www.w3.org/2000/svg" p-id="15712" xmlns:xlink="http://www.w3.org/1999/xlink" width="200" height="200"><path d="M512 512m-512 0a512 512 0 1 0 1024 0 512 512 0 1 0-1024 0Z" fill="#FF7777" p-id="15713"></path><path d="M581.189189 422.054054a131.459459 131.459459 0 1 0 262.918919 0 131.459459 131.459459 0 0 0-262.918919 0z" fill="#FCE9EA" p-id="15714"></path><path d="M567.821838 439.143784c1.286919 12.315676 5.023135 23.053838 9.797189 28.201513 4.774054 5.147676 9.880216 3.90227 13.367351-3.251892 3.487135-7.154162 4.843243-19.151568 3.570163-31.453405-1.286919-12.315676-5.023135-23.053838-9.79719-28.201514-4.774054-5.147676-9.880216-3.90227-13.367351 3.251892-3.487135 7.154162-4.843243 19.151568-3.570162 31.453406zM840.51027 470.33427c7.375568 1.798919 14.972541-12.177297 16.951352-31.190486 1.992649-19.027027-2.380108-35.895351-9.755676-37.69427-4.774054-1.162378-9.866378 4.331243-13.367351 14.405189s-4.870919 23.206054-3.597838 34.442378c1.273081 11.236324 4.995459 18.874811 9.769513 20.037189zM664.216216 539.675676h96.864865v96.864865h-96.864865z" fill="#FCE9EA" p-id="15715"></path><path d="M759.863351 595.027027c59.737946 8.634811 112.003459 37.376 146.072217 73.243676 8.994595 9.465081 10.599784 71.029622 0 78.97254l0.138378-0.110702c-1.522162 0.069189-3.044324 0.110703-4.566487 0.110702H520.039784c-12.357189-8.302703-8.980757-68.441946 0-78.97254 32.256-37.888 85.282595-62.865297 145.380324-73.243676 0 0 50.757189 33.501405 94.429406 0z" fill="#7690C6" p-id="15716"></path><path d="M657.574054 595.995676s-11.084108 30.540108-5.742703 48.017297c5.355243 17.449514 60.388324-23.801081 60.388325-23.801081s32.768 26.042811 53.441729 29.972757c20.659892 3.929946 0.290595-54.59027 0.290595-54.590271L762.395676 595.027027c-8.344216 6.586811-43.699892 32.408216-99.577081 0l-5.230703 0.968649z" fill="#F9EFDE" p-id="15717"></path><path d="M643.597838 404.300108c80.411676 10.087784 167.244108-59.765622 167.244108-59.765622s28.146162 33.28 31.730162 77.312c0.871784-5.867243 1.383784-11.859027 1.508324-17.989189 1.563676-76.315676-59.059892-139.374703-135.527783-140.910702-76.454054-1.522162-139.596108 59.142919-141.173622 135.472432A136.524108 136.524108 0 0 0 578.947459 456.648649c0.940973-24.160865 11.236324-59.087568 64.650379-52.348541z" fill="#5C4948" p-id="15718"></path><path d="M179.891892 401.297297h262.918919v262.918919H179.891892z" fill="#5C4948" p-id="15719"></path><path d="M193.72973 422.054054c0 72.607135 52.666811 131.459459 117.621621 131.45946s117.621622-58.852324 117.621622-131.45946-52.666811-131.459459-117.621622-131.459459c-64.968649 0-117.621622 58.852324-117.621621 131.459459z" fill="#FCE9EA" p-id="15720"></path><path d="M424.295784 463.664432c12.108108 0.138378 22.348108-15.636757 22.832432-35.272648 0.512-19.622054-8.89773-35.632432-21.019675-35.770811-0.608865-19.552865-227.936865-4.303568-240.044973-2.629189-12.108108 1.660541-21.448649 18.847135-20.825946 38.4 0.608865 19.539027 10.931892 34.041081 23.04 32.38054 10.572108-1.439135 19.26227-14.848 236.018162 2.892108zM262.918919 539.675676h96.864865v96.864865h-96.864865z" fill="#FCE9EA" p-id="15721"></path><path d="M359.327135 595.027027c59.544216 8.648649 110.951784 41.098378 144.909838 77.049081 9.465081 10.018595 11.208649 66.836757 0 75.167135H122.506378a89.115676 89.115676 0 0 1-2.975135-0.055351c-13.63027-9.105297-9.769514-63.488 0.069189-75.111784 32.159135-37.984865 83.165405-66.643027 143.055568-77.049081 0 0 53.137297 33.584432 96.671135 0z" fill="#FFFFFF" p-id="15722"></path><path d="M288.96173 373.289514s98.248649 49.359568 153.489297 37.334486c0.235243-3.279568 0.359784-6.559135 0.359784-9.907892 0-76.108108-58.852324-137.797189-131.45946-137.797189S179.891892 324.608 179.891892 400.716108c0 4.096 0.179892 8.122811 0.525838 12.080433 14.889514 3.279568 66.892108 10.350703 108.544-39.507027z" fill="#5C4948" p-id="15723"></path><path d="M230.330811 625.055135c-11.526919 2.975135-26.195027 7.472432-36.601081 11.914379v89.683027A300.557838 300.557838 0 0 0 303.602162 747.243243c39.534703 0 77.215135-7.527784 111.532973-21.171892v-93.433081A241.304216 241.304216 0 0 0 381.343135 622.702703v78.806486H230.330811V625.055135z" fill="#7690C6" p-id="15724"></path><path d="M304.432432 657.297297c0 3.736216 3.099676 6.780541 6.918919 6.780541s6.918919-3.044324 6.918919-6.780541-3.099676-6.780541-6.918919-6.78054-6.918919 3.044324-6.918919 6.78054z" fill="#7690C6" p-id="15725"></path></svg>